<svg viewBox="0 0 154 42" xmlns="http://www.w3.org/2000/svg" xmlns:xlink="http://www.w3.org/1999/xlink" width="154" height="42"><defs><path id="a" d="M0 .973h154.02v40.966H0z"></path></defs><g fill="none" fill-rule="evenodd"><path fill="#FFFFFE" d="M.858 21.841c0-10.937 8.868-19.806 19.806-19.806s19.805 8.869 19.805 19.806c0 10.938-8.867 19.806-19.805 19.806C9.726 41.647.858 32.779.858 21.84"></path><path fill="#1A1919" d="M56.154 19.92c0 1.663 1.188 1.855 2.244 1.855 4.662 0 6.192-3.515 6.192-6.73 0-4.034-2.589-6.947-6.753-6.947-.885 0-1.293.062-1.683.086V19.92zM54.04 9.8c0-1.94-1.013-1.812-1.984-1.834v-.559c.84.041 1.703.041 2.546.041.906 0 2.136-.04 3.733-.04 5.587 0 8.63 3.73 8.63 7.551 0 2.137-1.251 7.509-8.89 7.509-1.097 0-2.115-.042-3.127-.042-.972 0-1.921.021-2.892.042v-.562c1.292-.13 1.92-.173 1.984-1.64V9.8zM70.031 9.284c-.563 0-1.059-.517-1.059-1.078 0-.54.518-1.038 1.06-1.038.559 0 1.057.453 1.057 1.038 0 .582-.477 1.078-1.058 1.078zm-2.31 12.622h.41c.605 0 1.035 0 1.035-.714v-5.845c0-.95-.322-1.08-1.123-1.509v-.346c1.016-.304 2.223-.71 2.31-.778a.78.78 0 0 1 .39-.106c.106 0 .15.128.15.3v8.284c0 .714.475.714 1.078.714h.366v.562c-.733 0-1.488-.042-2.265-.042-.776 0-1.553.021-2.35.042v-.562zM74.388 15.475c0-.797-.238-1.013-1.25-1.42v-.413c.925-.301 1.81-.584 2.846-1.034.066 0 .128.042.128.212v1.407c1.233-.886 2.29-1.619 3.736-1.619 1.835 0 2.481 1.336 2.481 3.02v5.564c0 .714.477.714 1.078.714h.39v.562c-.758 0-1.512-.042-2.286-.042-.779 0-1.555.021-2.332.042v-.562h.388c.605 0 1.034 0 1.034-.714v-5.585c0-1.233-.753-1.835-1.983-1.835-.692 0-1.79.56-2.506 1.037v6.383c0 .714.479.714 1.083.714h.388v.562c-.756 0-1.513-.042-2.291-.042-.774 0-1.552.021-2.329.042v-.562h.392c.603 0 1.033 0 1.033-.714v-5.717M89.257 15.82c.538 0 .6-.279.6-.537 0-1.102-.667-1.987-1.876-1.987-1.315 0-2.221.97-2.48 2.525h3.756zm-3.819.693c-.046.195-.046.516 0 1.251.126 2.05 1.445 3.733 3.17 3.733 1.187 0 2.117-.648 2.913-1.447l.302.303c-.992 1.316-2.222 2.438-3.99 2.438-3.432 0-4.122-3.322-4.122-4.703 0-4.23 2.848-5.48 4.356-5.48 1.748 0 3.628 1.098 3.648 3.385 0 .132 0 .26-.02.39l-.196.13h-6.06zM92.21 21.906h.585c.604 0 1.032 0 1.032-.714v-6.06c0-.67-.796-.8-1.12-.974v-.32c1.575-.67 2.44-1.23 2.635-1.23.127 0 .192.062.192.28v1.941h.046c.538-.841 1.444-2.22 2.76-2.22.54 0 1.229.363 1.229 1.141 0 .582-.408 1.103-1.013 1.103-.671 0-.671-.52-1.425-.52-.367 0-1.575.496-1.575 1.792v5.067c0 .714.43.714 1.035.714h1.208v.562c-1.187-.02-2.091-.042-3.02-.042-.884 0-1.79.021-2.569.042v-.562M100.517 19.469c.283 1.422 1.146 2.632 2.721 2.632 1.271 0 1.744-.778 1.744-1.532 0-2.545-4.7-1.728-4.7-5.2 0-1.21.972-2.76 3.345-2.76.69 0 1.617.193 2.458.623l.152 2.2h-.496c-.215-1.358-.971-2.136-2.353-2.136-.864 0-1.681.498-1.681 1.424 0 2.528 5.004 1.75 5.004 5.137 0 1.423-1.143 2.934-3.71 2.934-.866 0-1.88-.302-2.634-.732l-.237-2.483.387-.107M126.194 11.311h-.54c-.409-2.523-2.2-3.537-4.614-3.537-2.484 0-6.09 1.66-6.09 6.837 0 4.362 3.113 7.49 6.433 7.49 2.136 0 3.906-1.466 4.338-3.733l.494.128-.494 3.151c-.906.563-3.347 1.144-4.771 1.144-5.048 0-8.238-3.259-8.238-8.113 0-4.423 3.945-7.596 8.175-7.596 1.749 0 3.43.562 5.091 1.144l.216 3.085M126.97 21.906h.412c.604 0 1.037 0 1.037-.714V9.179c0-1.405-.325-1.449-1.145-1.686v-.345c.862-.28 1.768-.667 2.223-.929.236-.128.41-.238.474-.238.13 0 .172.13.172.305v14.906c0 .714.476.714 1.08.714h.367v.562c-.73 0-1.488-.042-2.267-.042-.774 0-1.55.021-2.353.042v-.562M140.826 21.28c0 .389.236.41.603.41.259 0 .584-.021.865-.021v.455c-.93.086-2.698.538-3.111.667l-.107-.064v-1.745c-1.292 1.056-2.288 1.809-3.82 1.809-1.165 0-2.372-.753-2.372-2.564V14.7c0-.562-.087-1.103-1.293-1.209v-.41c.779-.024 2.5-.15 2.782-.15.24 0 .24.15.24.624v5.566c0 .647 0 2.503 1.877 2.503.731 0 1.702-.561 2.608-1.312v-5.809c0-.43-1.036-.666-1.81-.884v-.388c1.941-.13 3.15-.3 3.365-.3.173 0 .173.15.173.388v7.96M145.118 20.029c0 .82.776 2.2 2.224 2.2 2.31 0 3.281-2.267 3.281-4.187 0-2.329-1.77-4.27-3.452-4.27-.803 0-1.47.518-2.053 1.017v5.24zm0-5.87c.863-.731 2.03-1.55 3.216-1.55 2.503 0 4.013 2.18 4.013 4.528 0 2.825-2.07 5.654-5.16 5.654-1.596 0-2.435-.518-2.997-.753l-.647.493-.451-.235c.19-1.272.3-2.527.3-3.842V9.18c0-1.405-.323-1.449-1.143-1.686v-.345c.865-.28 1.768-.667 2.223-.929.234-.128.409-.238.476-.238.13 0 .17.13.17.305v7.872zM52.032 35.012h.165c.42 0 .868-.057.868-.67v-6.149c0-.612-.447-.669-.868-.669h-.165v-.355c.459 0 1.163.047 1.74.047.585 0 1.289-.047 1.841-.047v.355h-.165c-.42 0-.868.057-.868.67v6.149c0 .612.447.669.868.669h.165v.353c-.563 0-1.27-.045-1.854-.045-.577 0-1.268.045-1.727.045v-.353"></path><path fill="#1A1919" d="M55.562 35.316v-.25h-.113c-.419 0-.92-.075-.922-.723v-6.15c.002-.648.503-.72.922-.72h.113v-.25c-.542 0-1.222.045-1.79.045-.558 0-1.233-.044-1.688-.046v.25h.113c.418 0 .919.073.919.721v6.15c0 .648-.501.723-.92.723h-.112v.25c.455-.006 1.119-.048 1.675-.048.572 0 1.25.044 1.803.048zm.051.1c-.567 0-1.271-.047-1.854-.047-.576 0-1.266.046-1.727.046h-.051v-.452h.216c.425-.01.814-.046.816-.62v-6.15c-.002-.574-.391-.612-.816-.62h-.216v-.452h.05c.462 0 1.166.045 1.74.045.584 0 1.287-.045 1.842-.045h.051v.451h-.215c-.426.009-.816.047-.818.621v6.15c.002.574.392.61.818.62h.215v.452h-.05zM63.68 33.053l.023-.025v-4.401c0-.962-.67-1.103-1.024-1.103h-.257v-.355c.551 0 1.093.047 1.644.047.48 0 .964-.047 1.443-.047v.355h-.174c-.494 0-1.047.093-1.047 1.489v5.344c0 .41.014.82.07 1.184h-.445l-6.046-6.738v4.836c0 1.024.197 1.373 1.102 1.373h.2v.353c-.504 0-1.01-.045-1.515-.045-.525 0-1.068.045-1.595.045v-.353h.164c.81 0 1.058-.548 1.058-1.489v-4.945c0-.657-.543-1.054-1.07-1.054h-.152v-.355c.444 0 .903.047 1.349.047.352 0 .694-.047 1.046-.047l5.225 5.884"></path><path fill="#1A1919" d="M63.652 33.028v-.004l-.01-.007.01.011zm.027.025l.038-.035-.038.035zm.234 2.437h.389a7.646 7.646 0 0 1-.062-1.133v-5.344c0-1.409.589-1.54 1.095-1.54h.125v-.25c-.466.001-.928.045-1.394.045-.537 0-1.06-.044-1.593-.046v.25h.206c.362 0 1.073.16 1.073 1.155l-.013 4.437-.026.023-.04.038-5.22-5.903c-.349 0-.689.046-1.045.046-.43 0-.873-.044-1.298-.046l-.002.25h.103c.551 0 1.118.421 1.118 1.106v4.945c0 .94-.261 1.539-1.106 1.543l-.113-.004v.254c.508-.006 1.03-.048 1.544-.048.491 0 .979.042 1.463.048v-.25h-.148c-.924-.004-1.153-.405-1.153-1.427V28.67l6.097 6.819zm.445.103l-.483-.017-5.959-6.641v4.704c.015 1.022.17 1.312 1.053 1.324h.253v.452h-.053c-.508 0-1.013-.046-1.515-.046-.524 0-1.064.046-1.597.046h-.052v-.452h.218c.777-.006.997-.504 1.008-1.44v-4.945c-.002-.623-.516-1.003-1.02-1.006h-.206v-.451h.052c.45 0 .907.045 1.35.045.35 0 .69-.045 1.086-.028l5.159 5.806v-4.317c-.007-.935-.628-1.046-.973-1.055h-.31v-.451h.053c.553 0 1.095.045 1.644.045.477 0 .96-.045 1.443-.045h.053v.451h-.227c-.486.015-.982.059-.996 1.44v5.345c0 .409.012.819.07 1.177l.009.06h-.06zM67.267 27.757c-.881 0-.913.212-1.09 1.068h-.353c.048-.329.106-.656.143-.998.046-.328.07-.658.07-.997h.282c.094.352.387.339.705.339h6.057c.317 0 .61-.01.634-.363l.28.048c-.043.315-.091.632-.127.951-.025.316-.025.634-.025.95l-.35.132c-.024-.437-.083-1.13-.87-1.13h-1.925v6.246c0 .906.413 1.009.974 1.009h.223v.353c-.457 0-1.28-.045-1.914-.045-.703 0-1.526.045-1.985.045v-.353h.223c.649 0 .974-.057.974-.983v-6.272h-1.926"></path><path fill="#1A1919" d="M71.897 35.415c-.463 0-1.285-.046-1.916-.046-.703 0-1.522.046-1.985.046h-.05v-.452h.273c.649-.016.909-.024.923-.934v-6.222h-1.875v-.1h1.978v6.322c0 .94-.38 1.037-1.026 1.037h-.172v.248c.464-.004 1.253-.046 1.934-.046.614 0 1.397.042 1.862.046v-.248h-.17c-.568 0-1.028-.138-1.028-1.063v-6.296h1.978c.789.002.891.67.917 1.106l.256-.094c0-.304.001-.612.02-.922.033-.3.077-.6.121-.9l-.178-.03c-.057.34-.385.36-.68.355h-6.117c-.276 0-.576-.013-.68-.34h-.197c0 .325-.023.638-.07.953-.032.321-.085.632-.13.94h.252c.155-.816.255-1.083 1.13-1.068v.1c-.867.017-.848.162-1.041 1.03l-.006.04h-.454l.007-.06c.046-.328.108-.657.142-.999.049-.325.071-.652.071-.988v-.051h.372l.008.037c.081.297.296.299.596.305h6.117c.327-.006.565-.013.586-.319l.004-.054.052.01.331.052-.006.05c-.046.316-.092.633-.126.947-.025.314-.025.632-.025.948v.037l-.033.013-.416.152-.002-.07c-.032-.44-.08-1.08-.82-1.08h-1.876v6.196c.013.887.364.948.924.96h.273v.452h-.048M74.372 35.012h.164c.422 0 .867-.057.867-.67v-6.149c0-.612-.445-.669-.867-.669h-.164v-.355c.713 0 1.939.047 2.922.047.988 0 2.207-.047 3.003-.047-.019.506-.008 1.281.027 1.798l-.355.094c-.055-.762-.197-1.373-1.43-1.373h-1.628v3.073h1.392c.706 0 .86-.395.928-1.03h.35a27.93 27.93 0 0 0 0 2.711l-.35.07c-.067-.704-.103-1.162-.915-1.162H76.91v2.735c0 .765.678.765 1.428.765 1.41 0 2.03-.094 2.383-1.433l.329.082a26.477 26.477 0 0 0-.399 1.866c-.75 0-2.102-.045-3.159-.045-1.056 0-2.453.045-3.121.045v-.353"></path><path fill="#1A1919" d="M80.61 35.314c.1-.592.234-1.187.38-1.778l-.232-.057c-.352 1.314-1.032 1.43-2.419 1.42-.74 0-1.48 0-1.484-.814V31.3h1.46c.821-.01.902.486.96 1.155l.255-.053a27.55 27.55 0 0 1-.033-1.298c0-.44.012-.88.033-1.325h-.254c-.065.615-.256 1.043-.973 1.035h-1.448v-3.179h1.684c1.221-.006 1.425.624 1.475 1.36l.254-.068a19.76 19.76 0 0 1-.022-1.705c-.798.002-1.988.046-2.952.046-.965 0-2.154-.044-2.872-.046v.25h.114c.418 0 .919.073.92.721v6.15c-.001.648-.502.719-.92.723h-.114v.248c.682-.002 2.04-.046 3.071-.046 1.037 0 2.357.044 3.116.046zm.042.101c-.754 0-2.104-.048-3.159-.048-1.056 0-2.451.048-3.121.048h-.052v-.452h.216c.424-.008.812-.046.816-.62v-6.15c-.004-.572-.392-.61-.816-.62h-.216v-.452h.052c.715 0 1.939.045 2.922.045.985 0 2.205-.045 3.003-.045h.053v.051c-.01.176-.014.384-.014.608 0 .405.014.849.037 1.183v.043l-.04.01-.411.11-.002-.063c-.07-.76-.17-1.314-1.381-1.325h-1.582v2.971h1.346c.679-.003.796-.351.877-.983l.004-.046h.452v.05a24.453 24.453 0 0 0 0 2.712v.04l-.042.01-.41.08-.004-.054c-.08-.716-.085-1.108-.864-1.118l-1.359-.002v2.687c.002.715.616.71 1.382.715 1.415-.009 1.98-.078 2.334-1.398l.011-.047.05.01.376.098-.01.048c-.153.62-.292 1.242-.398 1.862l-.008.042h-.042zM84.14 31.138h.573c1.175 0 1.807-.444 1.807-1.831 0-1.042-.669-1.714-1.714-1.714-.354 0-.505.038-.667.047v3.498zm-1.503-2.723c0-.859-.47-.89-.834-.89h-.214v-.356c.376 0 1.104.047 1.822.047.702 0 1.267-.047 1.891-.047 1.475 0 2.791.4 2.791 2.068 0 1.056-.702 1.7-1.63 2.07l2.008 3c.328.499.56.636 1.138.705v.353c-.388 0-.763-.045-1.15-.045-.366 0-.741.045-1.104.045-.904-1.184-1.68-2.452-2.443-3.805h-.773v2.513c0 .907.421.939.961.939h.214v.353c-.672 0-1.353-.045-2.022-.045-.563 0-1.114.045-1.703.045v-.353h.214c.432 0 .834-.197.834-.632v-5.965z"></path><path fill="#1A1919" d="M84.713 31.088c1.162-.012 1.749-.415 1.759-1.78-.006-1.024-.644-1.66-1.666-1.666-.318 0-.467.029-.616.044v3.402h.523zm-.576.1h-.05v-3.595l.044-.004c.161-.014.319-.044.675-.044 1.069 0 1.764.693 1.766 1.764-.004 1.4-.676 1.879-1.859 1.879h-.576zm0 .322h.803l.014.026c.764 1.35 1.536 2.617 2.4 3.78.36 0 .737-.048 1.101-.048.375 0 .739.04 1.102.046v-.258c-.55-.067-.808-.233-1.128-.718l-2.044-3.058.06-.024c.918-.362 1.597-.988 1.6-2.02-.003-1.628-1.269-2.008-2.743-2.014-.62 0-1.186.046-1.891.046-.693 0-1.387-.044-1.77-.046v.25h.162c.363 0 .88.06.88.943v5.965c0 .47-.438.686-.88.686h-.162v.248c.564-.002 1.098-.046 1.65-.046.658 0 1.319.044 1.969.046v-.248h-.16c-.536 0-1.013-.067-1.013-.993V31.51h.05zm5.472 3.905c-.394 0-.767-.046-1.154-.046-.355 0-.733.046-1.142.029-.899-1.183-1.67-2.443-2.43-3.786h-.693v2.461c.012.884.367.876.91.89h.263v.452h-.053c-.672 0-1.355-.046-2.02-.046-.561 0-1.11.046-1.701.046h-.049v-.452h.263c.422-.004.776-.188.78-.583v-5.965c-.008-.832-.417-.83-.78-.843h-.263v-.451h.049c.382 0 1.106.045 1.822.045.7 0 1.265-.045 1.891-.045 1.477 0 2.84.412 2.845 2.114 0 1.06-.702 1.723-1.607 2.09l1.972 2.954c.328.489.531.61 1.103.684l.043.005v.447h-.05zM97.578 33.053l.023-.025v-4.401c0-.962-.67-1.103-1.02-1.103h-.259v-.355c.555 0 1.09.047 1.645.047.482 0 .962-.047 1.445-.047v.355h-.175c-.494 0-1.046.093-1.046 1.489v5.344c0 .41.01.82.067 1.184h-.443l-6.046-6.738v4.836c0 1.024.2 1.373 1.104 1.373h.2v.353c-.506 0-1.012-.045-1.516-.045-.529 0-1.069.045-1.596.045v-.353h.16c.813 0 1.059-.548 1.059-1.489v-4.945c0-.657-.54-1.054-1.067-1.054h-.152v-.355c.443 0 .905.047 1.349.047.351 0 .692-.047 1.045-.047l5.223 5.884"></path><path fill="#1A1919" d="M97.55 33.028v-.004l-.007-.007.008.011zm.028.025l.04-.035-.04.035zm.237 2.437h.384c-.05-.35-.06-.745-.06-1.133v-5.344c0-1.409.594-1.539 1.098-1.54h.123v-.25c-.462.001-.927.045-1.393.045-.538 0-1.064-.044-1.592-.046v.25h.207c.36.002 1.073.16 1.073 1.155l-.016 4.437-.022.023-.039.04-5.223-5.905c-.35 0-.692.046-1.045.046-.435 0-.874-.044-1.3-.046v.25h.103c.55.002 1.117.42 1.117 1.106v4.943c0 .943-.266 1.54-1.108 1.545h-.112v.248c.508-.004 1.03-.046 1.547-.046.49 0 .977.042 1.464.046v-.248h-.148c-.925 0-1.156-.403-1.158-1.427V28.67l6.1 6.819zm.443.103l-.481-.017-5.959-6.641v4.704c.016 1.024.17 1.312 1.055 1.324h.25v.452h-.052c-.508 0-1.012-.048-1.514-.048-.526 0-1.069.048-1.596.048h-.055v-.452h.216c.775-.004.999-.504 1.007-1.442v-4.943c-.003-.625-.512-1.003-1.016-1.006h-.207v-.451h.055c.446 0 .908.045 1.349.045.346 0 .685-.045 1.079-.032l5.162 5.81v-4.317c-.001-.935-.628-1.048-.97-1.055h-.31v-.451h.051c.557 0 1.096.045 1.645.045.478 0 .96-.045 1.444-.045h.05v.451h-.224c-.484.013-.984.059-.996 1.44v5.345c0 .409.01.814.069 1.177l.006.06h-.058zM103.015 28.485h-.024l-1.093 3.323h2.195l-1.078-3.323zm-1.713 5.202c-.119.398-.262.706-.262.914 0 .354.497.41.883.41h.13v.354a28.77 28.77 0 0 0-1.423-.045c-.423 0-.844.021-1.266.045v-.353h.068c.458 0 .848-.27 1.02-.763l1.88-5.386c.152-.436.366-1.022.435-1.459a6.014 6.014 0 0 0 1.07-.504c.035-.012.054-.022.093-.022.033 0 .057 0 .082.035.035.093.07.2.107.294l2.16 6.14c.139.41.28.846.432 1.199.142.327.389.466.776.466h.07v.353a35.676 35.676 0 0 0-1.619-.045c-.574 0-1.162.021-1.76.045v-.353h.13c.267 0 .726-.044.726-.338 0-.155-.105-.47-.238-.847l-.456-1.363h-2.666l-.372 1.223z"></path><path fill="#1A1919" d="M102.962 28.5l.03-.007-.03.008zm-.994 3.258h2.054L103 28.611l-1.032 3.147zm-.142.103l1.125-3.426h.064v.05l-.013.004.013-.004v-.05h.035l1.114 3.426h-2.338zm2.402 3.449c.578-.019 1.15-.042 1.71-.042.546 0 1.056.023 1.568.042v-.244h-.019c-.4.003-.677-.157-.822-.501-.153-.355-.296-.792-.434-1.203l-2.162-6.14c-.036-.094-.07-.2-.1-.284-.012-.012-.008-.012-.018-.012h-.021c-.025 0-.04.008-.068.016a4.478 4.478 0 0 1-1.047.47c-.072.446-.283 1.031-.436 1.466l-1.877 5.389c-.18.51-.591.799-1.07.799h-.018v.244c.402-.019.808-.042 1.216-.042.454 0 .918.023 1.366.042v-.244h-.073c-.384-.004-.918-.046-.932-.463 0-.234.143-.536.259-.93l.052.014-.052-.016.387-1.254h2.736l.47 1.394c.133.378.241.69.241.863-.018.36-.512.386-.776.392h-.08v.244zm3.325.105c-.526-.021-1.053-.048-1.615-.048-.574 0-1.158.027-1.76.048l-.053.004v-.46h.183c.269 0 .672-.06.672-.285.002-.135-.1-.457-.231-.83l-.446-1.328h-2.591l-.366 1.184c-.12.403-.258.713-.258.903.004.287.444.356.835.356h.178v.46l-.052-.004c-.47-.021-.95-.048-1.419-.048-.421 0-.844.027-1.265.048l-.051.004v-.46h.118c.438 0 .8-.25.97-.726l1.881-5.388c.155-.437.366-1.02.466-1.487.368-.128.84-.363 1.068-.506.033-.012.064-.027.113-.027a.14.14 0 0 1 .128.07c.035.096.071.2.106.293l2.164 6.143c.138.41.278.844.43 1.19.136.314.352.438.73.438h.12v.46l-.055-.004zM108.074 27.757c-.882 0-.915.212-1.092 1.068h-.354c.048-.329.108-.656.142-.998.048-.328.07-.658.07-.997h.283c.094.352.388.339.703.339h6.059c.316 0 .608-.01.633-.363l.281.048c-.045.315-.09.632-.128.951-.027.316-.027.634-.027.95l-.35.132c-.02-.437-.08-1.13-.867-1.13h-1.925v6.246c0 .906.412 1.009.974 1.009h.221v.353c-.456 0-1.277-.045-1.911-.045-.705 0-1.529.045-1.988.045v-.353h.225c.648 0 .977-.057.977-.983v-6.272h-1.926"></path><path fill="#1A1919" d="M112.697 35.415c-.458 0-1.28-.046-1.911-.046-.703 0-1.522.046-1.988.046h-.048v-.452h.273c.648-.016.906-.024.923-.934v-6.222h-1.872v-.1h1.973v6.322c0 .94-.378 1.033-1.024 1.037h-.172v.25c.464-.006 1.253-.048 1.935-.048.612 0 1.398.042 1.862.048l-.002-.25h-.172c-.564-.004-1.021-.138-1.023-1.063v-6.296h1.976c.79.002.89.67.914 1.106l.255-.094c0-.304 0-.612.025-.92.032-.302.078-.602.119-.9l-.175-.032c-.056.34-.386.36-.68.355h-6.119c-.277.002-.575-.013-.681-.344h-.193a6.986 6.986 0 0 1-.072.957c-.031.323-.09.632-.133.94h.253c.154-.816.254-1.085 1.134-1.068v.1c-.872.015-.852.162-1.043 1.03l-.008.04h-.455l.009-.06c.047-.328.106-.657.14-.995.049-.33.072-.656.072-.992v-.051h.37l.01.037c.084.297.3.299.598.305H113.885c.324-.006.563-.013.582-.319l.002-.054.056.01.335.052-.01.05c-.05.316-.094.633-.129.947-.022.314-.022.632-.022.948v.037l-.036.013-.416.152v-.07c-.03-.44-.078-1.08-.82-1.08h-1.875v6.196c.012.887.363.948.922.96h.274v.452h-.05M115.233 35.012h.164c.425 0 .87-.057.87-.67v-6.149c0-.612-.445-.669-.87-.669h-.164v-.355c.458 0 1.161.047 1.736.047.587 0 1.292-.047 1.846-.047v.355h-.164c-.425 0-.874.057-.874.67v6.149c0 .612.449.669.874.669h.164v.353c-.566 0-1.268-.045-1.856-.045-.577 0-1.268.045-1.726.045v-.353"></path><path fill="#1A1919" d="M118.76 35.314v-.248h-.109c-.421 0-.92-.075-.92-.723v-6.15c0-.648.499-.72.92-.72h.11v-.25c-.541.001-1.218.045-1.792.045-.557 0-1.231-.044-1.685-.046v.25h.113c.416 0 .918.073.918.721v6.15c0 .648-.502.723-.918.723h-.113v.248c.454-.006 1.115-.046 1.675-.046.57 0 1.25.042 1.802.046zm.055.101c-.568 0-1.27-.048-1.856-.048-.575 0-1.268.048-1.726.048h-.05v-.452h.214c.425-.008.813-.046.815-.62v-6.15c-.002-.572-.39-.612-.815-.62h-.214v-.452h.05c.458 0 1.163.045 1.736.045.587 0 1.29-.045 1.846-.045h.047v.451h-.211c-.43.009-.816.049-.82.621v6.15c.004.574.39.612.82.62h.211v.452h-.047zM123.673 35.025c2.28 0 2.674-2.008 2.674-3.719 0-1.716-.924-3.794-2.873-3.794-2.054 0-2.665 1.832-2.665 3.402 0 2.103.963 4.11 2.864 4.11zm-.177-8.03c2.503 0 4.498 1.55 4.498 4.051 0 2.7-1.937 4.495-4.437 4.495-2.493 0-4.39-1.688-4.39-4.215 0-2.44 1.888-4.331 4.33-4.331z"></path><path fill="#1A1919" d="M120.756 30.914c.004-1.579.624-3.455 2.718-3.455 1.995.004 2.923 2.12 2.926 3.847-.003 1.711-.405 3.767-2.727 3.767v-.097c2.235-.002 2.62-1.959 2.626-3.67 0-1.703-.918-3.742-2.825-3.744-2.014.002-2.61 1.789-2.614 3.352.002 2.093.956 4.056 2.813 4.062v.097c-1.948-.002-2.913-2.045-2.917-4.159zm-1.643.412c.006-2.469 1.917-4.38 4.383-4.384v.104c-2.415 0-4.283 1.865-4.283 4.28.003 2.497 1.878 4.162 4.344 4.164 2.475-.002 4.383-1.771 4.39-4.446-.003-2.469-1.969-3.996-4.45-3.998v-.104c2.52.005 4.543 1.57 4.547 4.102-.002 2.73-1.962 4.543-4.487 4.55-2.511-.007-4.438-1.717-4.444-4.268zM135.907 33.053l.023-.025v-4.401c0-.962-.668-1.103-1.025-1.103h-.252v-.355c.548 0 1.09.047 1.64.047.485 0 .965-.047 1.444-.047v.355h-.175c-.494 0-1.047.093-1.047 1.489v5.344c0 .41.015.82.071 1.184h-.447l-6.045-6.738v4.836c0 1.024.2 1.373 1.105 1.373h.199v.353c-.506 0-1.008-.045-1.515-.045-.528 0-1.069.045-1.599.045v-.353h.166c.813 0 1.054-.548 1.054-1.489v-4.945c0-.657-.536-1.054-1.068-1.054h-.152v-.355c.448 0 .905.047 1.352.047.35 0 .691-.047 1.043-.047l5.228 5.884"></path><path fill="#1A1919" d="M135.877 33.028v-.004l-.01-.007.01.011zm.03.025l.038-.035-.038.035zm.232 2.437h.389a7.934 7.934 0 0 1-.063-1.133v-5.344c0-1.41.593-1.539 1.097-1.54h.127v-.25c-.466.001-.93.045-1.4.045-.53 0-1.056-.044-1.588-.046v.25h.204c.366.002 1.075.163 1.075 1.155l-.015 4.437-.02.023-.038.04-5.228-5.905c-.346 0-.688.046-1.043.046-.434 0-.875-.044-1.3-.046v.25h.1c.553.002 1.12.42 1.12 1.106v4.945c0 .94-.26 1.539-1.106 1.543h-.114v.248c.51-.004 1.031-.046 1.547-.046.49 0 .979.042 1.463.046v-.248h-.151c-.922 0-1.152-.403-1.152-1.427V28.67l6.096 6.819zm.447.103l-.486-.017-5.957-6.641v4.704c.014 1.024.17 1.31 1.052 1.32h.255v.456h-.052c-.508 0-1.013-.046-1.515-.046-.526 0-1.066.046-1.599.046h-.048v-.456h.214c.775-.002.998-.5 1.004-1.436v-4.945c0-.625-.51-1.003-1.018-1.006h-.2v-.451h.048c.45 0 .909.045 1.352.045.347 0 .685-.045 1.084-.028l5.157 5.806v-4.317c-.002-.935-.626-1.046-.972-1.055h-.306v-.451h.052c.552 0 1.096.045 1.638.045.485 0 .96-.045 1.448-.045h.05v.451h-.225c-.482.015-.983.059-.993 1.44v5.345c0 .409.01.819.064 1.177l.01.06h-.057zM141.34 28.485h-.023l-1.093 3.323h2.199l-1.084-3.323zm-1.716 5.202c-.113.398-.256.706-.256.914 0 .354.497.41.88.41h.13v.354c-.47-.024-.95-.045-1.42-.045-.428 0-.848.021-1.267.045v-.353h.065c.46 0 .85-.27 1.023-.763l1.882-5.386c.152-.436.363-1.022.432-1.459a6.035 6.035 0 0 0 1.069-.504c.036-.012.06-.022.095-.022.033 0 .054 0 .081.035.036.093.069.2.108.294l2.159 6.14c.137.41.282.846.433 1.199.14.327.39.466.777.466h.07v.353a35.722 35.722 0 0 0-1.62-.045c-.576 0-1.165.021-1.763.045v-.353h.13c.27 0 .73-.044.73-.338 0-.155-.108-.47-.238-.847l-.456-1.363h-2.664l-.38 1.223z"></path><path fill="#1A1919" d="M141.295 28.5l.022-.007-.022.008zm-1 3.256h2.054l-1.023-3.143-1.03 3.143zm-.142.1l1.13-3.421h.056v.05l-.011.004.011-.004v-.05h.038l1.11 3.421h-2.334zm2.401 3.456c.578-.02 1.152-.044 1.71-.044.546 0 1.057.023 1.567.042v-.244h-.018c-.397 0-.676-.157-.822-.501-.157-.355-.296-.792-.436-1.203l-2.158-6.14c-.035-.094-.073-.2-.101-.28-.01-.016-.01-.016-.02-.016h-.019c-.026 0-.038.008-.07.016-.226.144-.694.38-1.047.47-.07.446-.284 1.031-.433 1.466l-1.88 5.389c-.18.51-.587.799-1.071.799h-.019v.244c.406-.019.812-.042 1.22-.042.454 0 .916.023 1.372.042v-.244h-.082c-.38-.004-.917-.046-.93-.465.001-.232.148-.532.262-.928l.045.014-.045-.016.385-1.254h2.74l.468 1.394c.132.378.236.69.236.863-.017.36-.509.386-.778.392h-.076v.246zm3.327.103c-.528-.02-1.058-.046-1.616-.046-.574 0-1.163.027-1.761.046l-.052.004v-.456h.178c.272 0 .678-.064.68-.29.002-.134-.103-.454-.236-.828l-.446-1.329h-2.592l-.361 1.184c-.117.405-.26.713-.255.9 0 .29.439.363.827.363h.18v.456l-.053-.004c-.468-.02-.95-.046-1.416-.046-.424 0-.844.027-1.267.046l-.05.004v-.456h.115c.438-.004.806-.256.976-.73l1.879-5.388c.15-.437.363-1.02.464-1.487.37-.128.843-.363 1.068-.506a.291.291 0 0 1 .114-.025.135.135 0 0 1 .13.07c.032.092.067.197.105.291l2.16 6.143c.14.41.282.844.434 1.192.139.312.35.436.727.44h.12v.456l-.052-.004zM148.844 34.215c0 .47.327.61.702.658a8.522 8.522 0 0 0 1.552-.023c.49-.057.915-.34 1.124-.635.188-.26.291-.586.366-.847h.34c-.13.671-.294 1.33-.436 1.997-1.033 0-2.067-.045-3.097-.045-1.035 0-2.068.045-3.102.045v-.353h.162c.426 0 .884-.057.884-.787v-6.032c0-.612-.458-.669-.884-.669h-.162v-.355c.622 0 1.235.047 1.855.047.6 0 1.187-.047 1.787-.047v.355h-.296c-.445 0-.795.013-.795.634v6.057"></path><path fill="#1A1919" d="M152.452 35.314c.136-.636.29-1.261.413-1.895h-.241c-.072.258-.176.572-.363.826-.218.307-.652.592-1.163.654a8.014 8.014 0 0 1-.899.048c-.226 0-.45-.01-.662-.023-.379-.045-.75-.206-.746-.71v-6.056c0-.653.41-.686.848-.686h.244v-.25c-.578.002-1.152.046-1.735.046-.61 0-1.204-.044-1.805-.046v.25h.112c.42 0 .932.073.932.72v6.033c0 .76-.51.84-.932.84h-.112v.249c1.012-.002 2.03-.046 3.052-.046 1.02 0 2.038.044 3.057.046zm.04.101c-1.035 0-2.067-.046-3.097-.046-1.035 0-2.068.046-3.104.046h-.048v-.452h.212c.426-.01.83-.04.835-.738V28.19c-.004-.57-.405-.61-.835-.619h-.212v-.451h.048c.626 0 1.237.045 1.857.045.598 0 1.185-.045 1.787-.045h.046v.451h-.342c-.455.013-.74-.008-.75.586v6.057c.006.438.29.554.66.608a8.682 8.682 0 0 0 1.542-.024c.476-.058.887-.332 1.09-.612.182-.252.284-.574.354-.83l.012-.04h.443l-.013.064c-.13.67-.293 1.326-.434 1.996l-.012.038h-.04z"></path><g><mask id="b" fill="#fff"><use xlink:href="#a"></use></mask><path fill="#1A1919" d="M152.588 28.076h.143c.16 0 .235-.12.235-.313 0-.199-.118-.266-.243-.266h-.135v.58zm-.419.653v-.062c.15-.02.18-.014.18-.11v-.915c0-.13-.014-.173-.176-.166v-.063h.634c.215 0 .417.105.417.327 0 .187-.12.321-.292.374l.202.285c.096.126.203.248.274.29v.04h-.241c-.115 0-.215-.244-.444-.569h-.135v.41c0 .083.028.077.177.097v.062h-.596zm.615.35c.553 0 .978-.47.978-1.003 0-.531-.417-1.008-.978-1.008-.558 0-.98.477-.98 1.008 0 .533.422 1.003.98 1.003zm0-2.241c.707 0 1.236.545 1.236 1.238a1.21 1.21 0 0 1-1.236 1.233 1.212 1.212 0 0 1-1.237-1.233c0-.693.532-1.238 1.237-1.238z" mask="url(#b)"></path><path fill="#184977" d="M32.642 21.45a11.917 11.917 0 0 0-7.646-11.109v22.22a11.917 11.917 0 0 0 7.646-11.11zM16.473 32.557V10.343a11.924 11.924 0 0 0-7.639 11.108 11.92 11.92 0 0 0 7.64 11.105zM20.737 2.67C10.365 2.674 1.963 11.079 1.96 21.45c.002 10.372 8.404 18.776 18.776 18.778 10.373-.002 18.778-8.406 18.78-18.777-.002-10.372-8.407-18.777-18.78-18.781zM20.692 42C9.342 42.054 0 32.858 0 21.665 0 9.433 9.341.97 20.692.973h5.318C37.225.971 47.463 9.428 47.463 21.665 47.463 32.855 37.225 42 26.01 42h-5.318z" mask="url(#b)"></path></g></g></svg>